<?xml version="1.0" encoding="UTF-8" standalone="no"?>
<svg
   viewBox="-0.304 -0.784 48 48"
   version="1.1"
   id="svg6"
   sodipodi:docname="favicon.svg"
   width="48"
   height="48"
   inkscape:version="1.3 (0e150ed, 2023-07-21)"
   xmlns:inkscape="http://www.inkscape.org/namespaces/inkscape"
   xmlns:sodipodi="http://sodipodi.sourceforge.net/DTD/sodipodi-0.dtd"
   xmlns="http://www.w3.org/2000/svg"
   xmlns:svg="http://www.w3.org/2000/svg">
  <defs
     id="defs6" />
  <sodipodi:namedview
     id="namedview6"
     pagecolor="#ffffff"
     bordercolor="#000000"
     borderopacity="0.25"
     inkscape:showpageshadow="2"
     inkscape:pageopacity="0.0"
     inkscape:pagecheckerboard="0"
     inkscape:deskcolor="#d1d1d1"
     showgrid="false"
     inkscape:zoom="6.945469"
     inkscape:cx="34.842859"
     inkscape:cy="33.475061"
     inkscape:window-width="1312"
     inkscape:window-height="832"
     inkscape:window-x="66"
     inkscape:window-y="65"
     inkscape:window-maximized="0"
     inkscape:current-layer="svg6" />
  <!-- https://pixabay.com/vectors/railroad-crossing-30924/ -->
  <path
     d="M 46.820577,38.127819 27.056112,3.9072432 C 26.377919,2.7241434 25.115651,2 23.760189,2 22.411554,2 21.155929,2.7241434 20.471647,3.9000461 L 0.7071818,38.128003 C 0.375375,38.70562 0.196,39.357054 0.196,40.027864 c 0,2.105995 1.7073841,3.806737 3.8133792,3.806737 H 43.525392 c 2.099351,0 3.806735,-1.707385 3.806735,-3.806737 -9.23e-4,-0.664351 -0.179928,-1.315785 -0.512104,-1.899861 z"
     fill="#ed171f"
     id="path1"
     style="stroke-width:0.092271" />
  <path
     d="M 5.0191938,39.449141 23.760373,6.9826383 42.508934,39.449141 Z"
     fill="#feb82f"
     id="path2"
     style="stroke-width:0.092271" />
  <path
     d="m 34.835486,28.706941 v 0.58463 h -0.591458 v 3.487847 h 0.817153 v -0.531482 h 0.205949 c 0.08637,0 0.152801,0.06643 0.152801,0.146158 v 1.408425 c 0,0.07972 -0.06643,0.146158 -0.152801,0.146158 h -0.205949 v -0.58463 h -0.817522 v 0.58463 h -3.746944 c 0.558056,0.298958 0.910162,0.883588 0.910162,1.521365 0,0.657708 -0.37868,1.262269 -0.969953,1.54794 h 4.982638 v 0.292315 H 12.114656 v -0.292315 h 4.863054 c -1.262268,-0.611203 -1.302129,-2.404953 -0.05315,-3.075949 l -3.640649,0.0067 v -0.584664 h -0.817153 v 0.58463 H 12.26081 c -0.07972,0 -0.146157,-0.06643 -0.146157,-0.146158 v -1.408056 c 0,-0.07972 0.06643,-0.146157 0.146157,-0.146157 h 0.205948 v 0.531481 h 0.817153 v -4.072846 h 1.116111 V 25.22576 c 0.292315,-0.697569 0.830441,-1.262269 1.521366,-1.581157 0.05315,-0.916806 0.677639,-1.70074 1.554583,-1.959838 0.411899,-0.637777 1.069607,-1.069606 1.81368,-1.202477 0.146158,-0.03986 0.292316,-0.03986 0.438473,0 -0.345464,-1.049675 -0.09965,-2.218934 0.644421,-3.042731 -0.405255,-1.594444 0.385324,-3.24868 1.880115,-3.926319 1.694097,-0.651065 3.5875,0.318889 4.05919,2.079421 0.843727,0.219236 1.434999,0.983241 1.434999,1.853542 0,0.159444 -0.01993,0.305601 -0.05315,0.458403 -0.09965,0.365393 -0.252453,0.724143 -0.458402,1.049675 -0.126227,0.212593 -0.272384,0.405255 -0.445116,0.58463 -0.11294,0.126226 -0.232523,0.239166 -0.35875,0.35875 -0.259097,0.225879 -0.571343,0.391967 -0.910162,0.465046 -0.332176,1.275555 -1.694097,1.986411 -2.929791,1.52801 -0.478334,1.082892 -1.70074,1.627661 -2.830139,1.255624 -0.664351,0.777292 -1.720671,1.089536 -2.697268,0.790578 -0.146158,0.49162 -0.465046,0.910163 -0.910162,1.169259 v 3.600787 h 2.989583 v -1.780462 h 0.551412 c 0.458403,-1.016458 1.893403,-1.016458 2.345162,0 h 0.551412 v 1.780462 h 2.87 v -1.029745 c 0,-1.202477 1.81368,-1.202477 1.81368,0 v 1.029745 h 2.577684 v -3.773518 h 2.637477 v 0.876945 h -1.753888 v 2.896573 h 0.870301 v 0.31889 h -0.259098 v 3.222105 h 2.311945 v -2.956365 h -0.58463 v -0.58463 h 1.75961 z"
     id="path3"
     style="stroke-width:0.092271" />
  <path
     d="m 18.492433,37.031638 c 0.597916,-0.292315 0.976597,-0.896875 0.976597,-1.554583 0,-0.637778 -0.358751,-1.222407 -0.916806,-1.521366 h 2.351805 c -0.564699,0.298959 -0.910161,0.883588 -0.910161,1.521366 0,0.664352 0.372036,1.262268 0.969953,1.554583 h -2.47102 z"
     fill="#feb82f"
     id="path4"
     style="stroke-width:0.092271" />
  <path
     d="m 22.472084,37.031638 c 0.591273,-0.292315 0.96331,-0.896875 0.96331,-1.554583 0,-0.637778 -0.352107,-1.222407 -0.910162,-1.521366 h 2.351805 c -0.564699,0.298959 -0.916804,0.883588 -0.916804,1.521366 0,0.664352 0.378679,1.262268 0.969953,1.554583 z"
     fill="#feb82f"
     id="path5"
     style="stroke-width:0.092271" />
  <path
     d="m 26.458195,37.031638 c 0.591273,-0.292315 0.96331,-0.896875 0.96331,-1.554583 0,-0.637778 -0.352107,-1.222407 -0.910162,-1.521366 h 2.351805 c -0.564699,0.298959 -0.916806,0.883588 -0.916806,1.521366 0,0.664352 0.378681,1.262268 0.969954,1.554583 z"
     fill="#feb82f"
     id="path6"
     style="stroke-width:0.092271" />
</svg>
