<?xml version="1.0" encoding="UTF-8"?>
<svg viewBox="-0.304 -0.784 512 455" xmlns="http://www.w3.org/2000/svg">
<!-- https://pixabay.com/vectors/railroad-crossing-30924/ -->
 <path d="m505.3,391.54-214.2-370.87c-7.35-12.822-21.03-20.67-35.72-20.67-14.616,0-28.224,7.848-35.64,20.592l-214.2,370.95c-3.596,6.26-5.54,13.32-5.54,20.59 0,22.824 18.504,41.256 41.328,41.256h428.26c22.752,0 41.256-18.504 41.256-41.256-.01-7.2-1.95-14.26-5.55-20.59z" fill="#ed171f"/>
 <path d="m52.272 405.86 203.11-351.86 203.19 351.86z" fill="#feb82f"/>
 <path d="m375.41,289.44v6.336h-6.41v37.8h8.856v-5.76h2.232c.936,0 1.656.72 1.656,1.584v15.264c0,.864-.72,1.584-1.656,1.584h-2.232v-6.336h-8.86v6.336h-40.608c6.048,3.24 9.864,9.576 9.864,16.488 0,7.128-4.104,13.68-10.512,16.776h54v3.168h-252.57v-3.168h52.704c-13.68-6.624-14.112-26.064-.576-33.336l-39.456.072v-6.336h-8.856v6.336h-2.232c-.864,0-1.584-.72-1.584-1.584v-15.26c0-.864.72-1.584 1.584-1.584h2.232v5.76h8.856v-44.14h12.096v-37.728c3.168-7.56 9-13.68 16.488-17.136 .576-9.936 7.344-18.432 16.848-21.24 4.464-6.912 11.592-11.592 19.656-13.032 1.584-.432 3.168-.432 4.752,0-3.744-11.376-1.08-24.048 6.984-32.976-4.392-17.28 4.176-35.208 20.376-42.552 18.36-7.056 38.88,3.456 43.992,22.536 9.144,2.376 15.552,10.656 15.552,20.088 0,1.728-.216,3.312-.576,4.968-1.08,3.96-2.736,7.848-4.968,11.376-1.368,2.304-2.952,4.392-4.824,6.336-1.224,1.368-2.52,2.592-3.888,3.888-2.808,2.448-6.192,4.248-9.864,5.04-3.6,13.824-18.36,21.528-31.752,16.56-5.184,11.736-18.432,17.64-30.672,13.608-7.2,8.424-18.648,11.808-29.232,8.568-1.584,5.328-5.04,9.864-9.864,12.672v39.024h32.4v-19.296h5.976c4.968-11.016 20.52-11.016 25.416,0h5.976v19.296h31.104v-11.16c0-13.032 19.656-13.032 19.656,0v11.16h27.936v-40.896h28.584v9.504h-19.008v31.392h9.432v3.456h-2.808v34.92h25.056v-32.04h-6.336v-6.336h19.07z"/>
 <path d="m198.29 379.66c6.48-3.168 10.584-9.72 10.584-16.848 0-6.912-3.888-13.248-9.936-16.488h25.488c-6.12 3.24-9.864 9.576-9.864 16.488 0 7.2 4.032 13.68 10.512 16.848h-26.78z" fill="#feb82f"/>
 <path d="m241.42 379.66c6.408-3.168 10.44-9.72 10.44-16.848 0-6.912-3.816-13.248-9.864-16.488h25.488c-6.12 3.24-9.936 9.576-9.936 16.488 0 7.2 4.104 13.68 10.512 16.848h-26.64z" fill="#feb82f"/>
 <path d="m284.62 379.66c6.408-3.168 10.44-9.72 10.44-16.848 0-6.912-3.816-13.248-9.864-16.488h25.488c-6.12 3.24-9.936 9.576-9.936 16.488 0 7.2 4.104 13.68 10.512 16.848h-26.64z" fill="#feb82f"/>
</svg>
